<!DOCTYPE svg PUBLIC "-//W3C//DTD SVG 1.1//EN" "http://www.w3.org/Graphics/SVG/1.1/DTD/svg11.dtd">
<!-- Uploaded to: SVG Repo, www.svgrepo.com, Transformed by: SVG Repo Mixer Tools -->
<svg fill="#24a48b" height="800px" width="800px" version="1.1" id="Layer_1" xmlns="http://www.w3.org/2000/svg" xmlns:xlink="http://www.w3.org/1999/xlink" viewBox="-71.68 -71.68 655.37 655.37" xml:space="preserve">
<g id="SVGRepo_bgCarrier" stroke-width="0" transform="translate(0,0), scale(1)">
<rect x="-71.68" y="-71.68" width="655.37" height="655.37" rx="327.685" fill="#002336" strokewidth="0"/>
</g>
<g id="SVGRepo_tracerCarrier" stroke-linecap="round" stroke-linejoin="round"/>
<g id="SVGRepo_iconCarrier"> <g> <g> <g> <path d="M507.574,218.405L260.107,82.511c-2.56-1.399-5.649-1.399-8.209,0L4.431,218.405c-2.807,1.536-4.506,4.506-4.429,7.697 c0.085,3.191,1.937,6.067,4.804,7.458l29.329,14.234v78.677l-22.938,51.618c-4.361,9.805-3.482,21.018,2.372,30.02 c5.837,8.994,15.735,14.37,26.462,14.37h5.76c10.615,0,20.412-5.325,26.197-14.217c5.786-8.9,6.673-20.011,2.364-29.722 l-23.151-52.07v-70.4l42.667,20.71v67.319c0,21.299,13.056,41.591,33.254,51.695l16.922,8.457 c35.055,17.527,73.498,26.291,111.957,26.291c38.451,0,76.911-8.764,111.957-26.291l16.922-8.457 c20.198-10.103,33.254-30.396,33.254-51.695v-67.319l89.062-43.221c2.867-1.391,4.719-4.267,4.804-7.458 C512.079,222.91,510.381,219.941,507.574,218.405z M51.203,250.516v-15.454c0-0.606-0.222-1.126-0.341-1.69l162.893-19.55 c2.133-21.547,20.147-38.494,42.249-38.494c23.526,0,42.667,19.14,42.667,42.667c0,23.518-19.14,42.667-42.667,42.667 c-19.029,0-35.004-12.612-40.482-29.858L51.203,250.516z M401.069,344.101c0,14.891-9.353,29.193-23.825,36.429l-16.913,8.457 c-65.323,32.666-143.334,32.666-208.657,0l-16.913-8.457c-14.473-7.236-23.825-21.538-23.825-36.429v-59.034l141.338,68.599 c2.355,1.152,5.103,1.152,7.458,0l141.338-68.599V344.101z"/> <path d="M264.478,216.334c0.555,4.685-2.773,8.926-7.458,9.489l-24.175,2.901c4.07,8.755,12.885,14.865,23.159,14.865 c14.114,0,25.6-11.477,25.6-25.6c0-14.114-11.486-25.6-25.6-25.6c-11.947,0-21.914,8.252-24.73,19.328l23.714-2.842 C259.708,208.338,263.915,211.666,264.478,216.334z"/> </g> </g> </g> </g>
</svg>