<?xml version="1.0" standalone="no"?>
<!DOCTYPE svg PUBLIC "-//W3C//DTD SVG 20010904//EN"
 "http://www.w3.org/TR/2001/REC-SVG-20010904/DTD/svg10.dtd">
<svg version="1.0" xmlns="http://www.w3.org/2000/svg"
 width="700.000000pt" height="700.000000pt" viewBox="0 0 700.000000 700.000000"
 preserveAspectRatio="xMidYMid meet">
<metadata>
Created by potrace 1.14, written by Peter Selinger 2001-2017
</metadata>
<g transform="translate(0.000000,700.000000) scale(0.100000,-0.100000)"
fill="#000000" stroke="none">
<path d="M0 3500 l0 -3500 3500 0 3500 0 0 3500 0 3500 -3500 0 -3500 0 0
-3500z m4168 1716 c36 -19 78 -65 91 -99 29 -76 38 -49 -585 -1681 -328 -859
-608 -1576 -621 -1594 -50 -68 -162 -94 -229 -53 -56 34 -87 86 -92 151 -4 57
11 97 593 1621 329 860 608 1578 621 1595 47 63 158 93 222 60z m-1542 -815
c99 -45 139 -176 80 -266 -24 -37 -52 -56 -526 -345 -245 -150 -449 -276 -453
-280 -5 -4 204 -137 464 -296 509 -312 521 -321 535 -411 13 -88 -31 -168
-111 -199 -90 -34 -87 -36 -637 306 -277 172 -513 322 -526 334 -13 11 -37 49
-54 84 -62 126 -46 295 40 407 33 44 99 88 522 353 267 167 499 310 515 317
42 20 103 18 151 -4z m1928 -9 c77 -39 965 -598 994 -625 18 -18 48 -61 65
-97 30 -60 32 -72 32 -165 0 -96 -2 -105 -37 -175 -20 -41 -49 -87 -65 -101
-37 -35 -957 -608 -1003 -625 -50 -19 -119 -17 -160 4 -44 22 -95 89 -104 136
-10 53 11 115 52 156 21 20 245 163 500 319 255 156 459 287 455 291 -4 4
-213 132 -463 285 -250 153 -466 288 -479 299 -13 12 -32 39 -42 61 -75 162
94 319 255 237z"/>
</g>
</svg>
